<svg xmlns="http://www.w3.org/2000/svg" width="672" height="615" fill-rule="evenodd" clip-rule="evenodd" image-rendering="optimizeQuality" shape-rendering="geometricPrecision" text-rendering="geometricPrecision">
  <path fill="#5256cf" d="M-.5-.5h672v615H-.5V-.5z"/>
  <path fill="#fdd92c" d="M311.5 64.5c24.349-1.748 41.849 8.252 52.5 30 3.371 10.121 4.371 20.454 3 31 1.054 7.291 4.887 12.458 11.5 15.5 31.046 8.922 45.212-2.578 42.5-34.5-3.302-2.718-6.469-2.552-9.5.5-7.049 1.646-11.382-1.021-13-8 1.542-7.21 5.876-9.877 13-8 2.601 3.25 5.767 4.084 9.5 2.5 2.067-4.55.734-7.883-4-10-3.724-10.93.109-16.097 11.5-15.5a11.529 11.529 0 014.5 3.5 58.115 58.115 0 011.5 15.5c1.667.667 3.333.667 5 0 1.735-2.192 2.902-4.692 3.5-7.5 6.333-6.667 12.667-6.667 19 0 3.513 7.776 1.346 13.276-6.5 16.5l-11 1c-1.247 1.458-1.247 2.958 0 4.5 5.015.392 9.515 2.059 13.5 5 4.228 12.065.061 17.232-12.5 15.5a36.548 36.548 0 01-6.5-7.5l-1.5 1.5c3.334 21.335-4.666 36.668-24 46a36.229 36.229 0 01-15 2.5c8.142 44.091-1.025 84.091-27.5 120-1.778 5.556.055 9.39 5.5 11.5l22 1c9.457 1.145 17.29 5.311 23.5 12.5a267.498 267.498 0 0111 19 34.706 34.706 0 006.5 7.5c3.028 1.14 5.195.306 6.5-2.5-1.148-4.545-1.482-9.212-1-14 4.267-7.376 10.101-8.876 17.5-4.5 2.86 3.681 3.693 7.848 2.5 12.5a39.806 39.806 0 01-7 8c-1.69 4.958-.023 7.958 5 9a34.779 34.779 0 008.5-4.5c11.167-.833 16.333 4.333 15.5 15.5-3.142 7.439-8.642 9.939-16.5 7.5l-7-3.5c-4.336 1.001-5.836 3.668-4.5 8 11.832 6.16 13.998 14.66 6.5 25.5-12.281 5.692-19.947 2.025-23-11a24.879 24.879 0 012.5-7.5c1.421-3.93.254-6.597-3.5-8-3.205 2.055-5.038 5.055-5.5 9-6.05 7.055-12.716 7.722-20 2-5.69-12.781-1.524-19.614 12.5-20.5 1.304-.804 1.971-1.971 2-3.5a571.52 571.52 0 01-19-20.5c-5.238-3.266-10.905-4.266-17-3a85.12 85.12 0 01-25.5 4.5c-28.551-6.15-51.884 2.183-70 25-29.104 37.415-37.77 79.081-26 125 12.015 26.266 32.515 39.933 61.5 41 26.301-.833 45.467-12.833 57.5-36 9.038-23.546 3.205-42.38-17.5-56.5-16.642-8.127-32.642-7.127-48 3-1.284.684-2.451.517-3.5-.5-.635-2.135-.301-4.135 1-6 17.646-22.264 39.146-26.764 64.5-13.5 18.104 11.127 28.604 27.293 31.5 48.5 2.869 35.446-11.631 60.946-43.5 76.5-34.15 13.259-67.15 10.926-99-7-25.019-18.159-41.519-42.326-49.5-72.5-12.897-62.093 3.436-115.093 49-159a12.494 12.494 0 000-7c-9.953-9.571-15.953-21.238-18-35a10.94 10.94 0 00-4.5-3c-6.39 4.864-13.39 8.697-21 11.5-1.333 1.333-1.333 2.667 0 4 11.435-.26 15.602 4.906 12.5 15.5-9.216 4.309-15.05 1.476-17.5-8.5-4.2-1.31-6.867.19-8 4.5 2.953 8.708-.047 14.042-9 16-8.676-2.354-11.176-7.688-7.5-16a34.761 34.761 0 006-6c.595-1.399.428-2.732-.5-4-1.921-1.141-3.921-1.308-6-.5-6.986 6.254-13.486 5.754-19.5-1.5-2.694-7.12-.528-12.287 6.5-15.5 5.661-1.171 10.328.495 14 5 2.778.923 4.778.089 6-2.5-2.073-2.978-4.573-5.645-7.5-8-1.5-10.5 3-15 13.5-13.5 4.76 3.491 6.093 7.991 4 13.5.333 1 1 1.667 2 2a207.61 207.61 0 0028-18.5c6.17-3.42 12.17-3.086 18 1a154.145 154.145 0 0022 25c2.277 1.959 4.777 3.459 7.5 4.5 3.529-1.515 6.529-3.848 9-7 17.444-21.56 26.444-46.227 27-74a7.248 7.248 0 00-2.5-2c-8.706 6.291-18.373 9.458-29 9.5-7.579-9.039-17.079-13.872-28.5-14.5-.626 2.213-.459 4.38.5 6.5-2.759 8.8-7.925 10.634-15.5 5.5-3.302-6.442-1.635-11.442 5-15 .846-8.27-2.321-10.103-9.5-5.5-11.393 1.279-15.559-3.555-12.5-14.5 3.396-3.703 7.563-4.869 12.5-3.5a17.354 17.354 0 007 3.5c3.671-1.339 4.504-3.673 2.5-7-8.073-4.999-9.573-11.499-4.5-19.5 12.832-5.493 18.666-1.326 17.5 12.5-2.209 2.641-2.709 5.475-1.5 8.5 1.333.667 2.667.667 4 0a20.889 20.889 0 003.5-6.5c5.292-5.32 10.626-5.32 16 0 3.599 10.582-.235 16.248-11.5 17-1.131 1.574-1.298 3.241-.5 5 4.171 4.671 9.338 7.671 15.5 9a348.968 348.968 0 0030.5-14c5.561-9.442 4.394-17.942-3.5-25.5-29.376-9.274-42.209-29.108-38.5-59.5 6.195-4.848 13.028-8.182 20.5-10z"/>
  <path fill="#5356cf" d="M330.5 78.5c10.128 1.094 13.128 6.26 9 15.5-6.744.433-10.744-2.734-12-9.5.128-2.455 1.128-4.455 3-6z"/>
  <path fill="#5457cf" d="M302.5 96.5c10.638.294 13.971 5.294 10 15-7.329 1.309-11.663-1.858-13-9.5.624-2.085 1.624-3.918 3-5.5z"/>
  <path fill="#5456cf" d="M354.5 144.5c1.808-.009 3.475.491 5 1.5a203.814 203.814 0 0116.5 17.5c2.078 5.856.912 11.023-3.5 15.5a117.72 117.72 0 01-15 5 9.454 9.454 0 00-1.5 2.5 71.675 71.675 0 003 21c4.246 10.309 6.579 20.976 7 32-1.167 3.833-3.667 6.333-7.5 7.5a112.24 112.24 0 01-19 2 12.403 12.403 0 00-4 2.5c-2.304 11.569-2.637 23.235-1 35 .249 6.8-2.417 11.967-8 15.5a90.354 90.354 0 01-15 2c-7.964 1.556-13.464 6.056-16.5 13.5a109.479 109.479 0 01-6.5 15.5c-4.5.833-6.333-1-5.5-5.5 2.104-10.379 6.938-19.213 14.5-26.5a36.16 36.16 0 007-4c7.08-1.839 14.08-3.673 21-5.5.346-12.288.513-24.621.5-37 1.055-7.459 5.222-12.293 12.5-14.5l15-1a11.333 11.333 0 003.5-1.5 12.494 12.494 0 000-7 1075.133 1075.133 0 01-9-31c-4.233-16.095 1.934-24.595 18.5-25.5 1.304-.804 1.971-1.971 2-3.5-3.81-7.323-8.976-13.656-15.5-19-.833-2.671-.333-5.004 1.5-7z"/>
</svg>
